<svg width="30" height="29" viewBox="0 0 30 29" fill="none" xmlns="http://www.w3.org/2000/svg">
<path fill-rule="evenodd" clip-rule="evenodd" d="M25.901 0C26.8823 0 27.8234 0.389835 28.5173 1.08374C29.2113 1.77765 29.6011 2.7188 29.6011 3.70014V27.3681C29.601 27.5511 29.5467 27.73 29.4449 27.8821C29.3432 28.0343 29.1986 28.1528 29.0294 28.2227C28.8603 28.2927 28.6742 28.3108 28.4947 28.2749C28.3152 28.239 28.1504 28.1507 28.0211 28.0211L22.7429 22.7429C22.396 22.3959 21.9255 22.2009 21.4349 22.2008H3.70014C2.7188 22.2008 1.77765 21.811 1.08374 21.1171C0.389835 20.4232 0 19.482 0 18.5007V3.70014C0 2.7188 0.389835 1.77765 1.08374 1.08374C1.77765 0.389835 2.7188 0 3.70014 0L25.901 0Z" fill="#E2FEEB"/>
</svg>
