<svg width="111" height="85" viewBox="0 0 111 85" fill="none" xmlns="http://www.w3.org/2000/svg">
<path d="M68.2039 0L56.5232 19.2397C56.5232 19.2397 55.8273 19.1904 55.4296 19.1904C49.8129 19.1904 45.2898 23.6796 45.2898 29.2542C45.2898 34.8288 49.8129 39.318 55.4296 39.318C61.0464 39.318 65.5695 34.8288 65.5695 29.2542C65.5695 28.4156 65.4701 27.5769 65.2713 26.7876L75.3615 11.3958H88.2352L54.9823 63.047L21.8785 11.3958H49.0177L55.1314 0H0.306396L55.4794 85L110.155 0H68.2039ZM58.064 33.6941H52.6462L54.2864 29.5009C53.1929 29.0569 52.4473 28.0209 52.4473 26.7876C52.4473 25.1596 53.7397 23.877 55.3799 23.877C57.0202 23.877 58.3126 25.1596 58.3126 26.7876C58.3126 28.0209 57.5173 29.0569 56.4238 29.5009L58.064 33.6941Z" fill="#00A343"/>
</svg>
